<svg width="100%" viewBox="0 0 680 430" role="img" xmlns="http://www.w3.org/2000/svg">
<title>Two LANCEFALL sigils with distinct signature motion: the lance strike and the hollow implode</title>
<desc>THE LANCE lunging with an impact shockwave, and THE HOLLOW imploding as particles spiral into a void with a flickering key.</desc>
<defs>
<radialGradient id="vg" cx="50%" cy="40%" r="72%"><stop offset="0%" stop-color="#0e1730"/><stop offset="100%" stop-color="#03050c"/></radialGradient>
<radialGradient id="coreC" cx="50%" cy="45%" r="55%"><stop offset="0%" stop-color="#ffffff"/><stop offset="35%" stop-color="#9bffff"/><stop offset="70%" stop-color="#22a6c4"/><stop offset="100%" stop-color="#0a3a4a" stop-opacity="0"/></radialGradient>
<radialGradient id="coreH" cx="50%" cy="45%" r="55%"><stop offset="0%" stop-color="#eafff7"/><stop offset="35%" stop-color="#6ee7b7"/><stop offset="70%" stop-color="#1f8f6e"/><stop offset="100%" stop-color="#08261d" stop-opacity="0"/></radialGradient>
<linearGradient id="bzC" x1="0" y1="0" x2="1" y2="1"><stop offset="0%" stop-color="#16202f"/><stop offset="35%" stop-color="#4fd6ee"/><stop offset="50%" stop-color="#e9feff"/><stop offset="66%" stop-color="#3fb8d8"/><stop offset="100%" stop-color="#101826"/></linearGradient>
<linearGradient id="bzH" x1="0" y1="0" x2="1" y2="1"><stop offset="0%" stop-color="#0e2a22"/><stop offset="35%" stop-color="#3fcaa0"/><stop offset="50%" stop-color="#dffff4"/><stop offset="66%" stop-color="#2a9f7e"/><stop offset="100%" stop-color="#08201a"/></linearGradient>
<linearGradient id="bladeC" x1="0" y1="1" x2="0.4" y2="0"><stop offset="0%" stop-color="#1b6f8a"/><stop offset="55%" stop-color="#9bffff"/><stop offset="100%" stop-color="#ffffff"/></linearGradient>
<linearGradient id="greenSh" x1="0" y1="0" x2="0.4" y2="1"><stop offset="0%" stop-color="#1f8f6e"/><stop offset="50%" stop-color="#6ee7b7"/><stop offset="100%" stop-color="#dffff4"/></linearGradient>
<linearGradient id="glass" x1="0" y1="0" x2="0" y2="1"><stop offset="0%" stop-color="#ffffff" stop-opacity="0.5"/><stop offset="40%" stop-color="#ffffff" stop-opacity="0.06"/><stop offset="100%" stop-color="#ffffff" stop-opacity="0"/></linearGradient>
<filter id="bl" x="-60%" y="-60%" width="220%" height="220%"><feGaussianBlur stdDeviation="2.2"/><feMerge><feMergeNode/><feMergeNode in="SourceGraphic"/></feMerge></filter>
<filter id="blS" x="-80%" y="-80%" width="260%" height="260%"><feGaussianBlur stdDeviation="1.1"/><feMerge><feMergeNode/><feMergeNode in="SourceGraphic"/></feMerge></filter>
<filter id="big" x="-130%" y="-130%" width="360%" height="360%"><feGaussianBlur stdDeviation="10"/></filter>
<g id="rays" stroke="currentColor" stroke-width="1.2" stroke-linecap="round"><line x1="42" y1="0" x2="92" y2="0"/><line x1="36.4" y1="21" x2="79.7" y2="46"/><line x1="21" y1="36.4" x2="46" y2="79.7"/><line x1="0" y1="42" x2="0" y2="92"/><line x1="-21" y1="36.4" x2="-46" y2="79.7"/><line x1="-36.4" y1="21" x2="-79.7" y2="46"/><line x1="-42" y1="0" x2="-92" y2="0"/><line x1="-36.4" y1="-21" x2="-79.7" y2="-46"/><line x1="-21" y1="-36.4" x2="-46" y2="-79.7"/><line x1="0" y1="-42" x2="0" y2="-92"/><line x1="21" y1="-36.4" x2="46" y2="-79.7"/><line x1="36.4" y1="-21" x2="79.7" y2="-46"/></g>
<g id="r12" fill="currentColor"><circle cx="0" cy="-72" r="2.6"/><circle cx="62.4" cy="-36" r="2.6"/><circle cx="62.4" cy="36" r="2.6"/><circle cx="0" cy="72" r="2.6"/><circle cx="-62.4" cy="36" r="2.6"/><circle cx="-62.4" cy="-36" r="2.6"/><circle cx="31.2" cy="-54" r="1.7"/><circle cx="62.4" cy="0" r="1.7"/><circle cx="31.2" cy="54" r="1.7"/><circle cx="-31.2" cy="54" r="1.7"/><circle cx="-62.4" cy="0" r="1.7"/><circle cx="-31.2" cy="-54" r="1.7"/></g>
<g id="guil" fill="none" stroke="currentColor" stroke-width="0.5"><ellipse rx="96" ry="80"/><ellipse rx="96" ry="80" transform="rotate(30)"/><ellipse rx="96" ry="80" transform="rotate(60)"/><ellipse rx="96" ry="80" transform="rotate(90)"/><ellipse rx="96" ry="80" transform="rotate(120)"/><ellipse rx="96" ry="80" transform="rotate(150)"/></g>
<clipPath id="hx"><polygon points="0,-72 62.4,-36 62.4,36 0,72 -62.4,36 -62.4,-36"/></clipPath>
</defs>

<rect x="0" y="0" width="680" height="430" rx="16" fill="url(#vg)"/>

<g transform="translate(186,196) scale(1.46)">
<circle r="84" fill="#7df9ff" opacity="0.10" filter="url(#big)"><animate attributeName="opacity" values="0.06;0.16;0.06" dur="2.8s" repeatCount="indefinite"/></circle>
<circle r="90" fill="none" stroke="url(#bzC)" stroke-width="5"/>
<circle r="86" fill="none" stroke="#06121c" stroke-width="1.6"/>
<circle r="82" fill="none" stroke="#7df9ff" stroke-width="0.6" stroke-dasharray="6 6" opacity="0.4"><animateTransform attributeName="transform" type="rotate" from="0" to="360" dur="50s" repeatCount="indefinite"/></circle>
<circle r="90" fill="none" stroke="#eafdff" stroke-width="5" stroke-linecap="round" stroke-dasharray="14 9999" opacity="0.8"><animate attributeName="stroke-dashoffset" values="0;-565" dur="6s" repeatCount="indefinite"/></circle>
<g clip-path="url(#hx)">
<polygon points="0,-72 62.4,-36 62.4,36 0,72 -62.4,36 -62.4,-36" fill="#06101e"/>
<circle r="62" fill="url(#coreC)" opacity="0.18"/>
<g fill="#cffaff"><circle cx="-44" cy="-26" r="1"><animate attributeName="opacity" values="0.2;1;0.2" dur="2.6s" repeatCount="indefinite"/></circle><circle cx="44" cy="-40" r="0.9"><animate attributeName="opacity" values="1;0.2;1" dur="3.1s" repeatCount="indefinite"/></circle><circle cx="50" cy="20" r="1"><animate attributeName="opacity" values="0.3;1;0.3" dur="2.2s" repeatCount="indefinite"/></circle><circle cx="-30" cy="46" r="0.8"><animate attributeName="opacity" values="1;0.3;1" dur="3.6s" repeatCount="indefinite"/></circle></g>
<g transform="rotate(-48)">
<g stroke="#7df9ff" stroke-linecap="round" opacity="0"><animate attributeName="opacity" values="0;0.45;0" keyTimes="0;0.1;0.4" dur="2.8s" repeatCount="indefinite"/><line x1="-40" y1="0" x2="46" y2="0" stroke-width="3.5"/><line x1="-30" y1="0" x2="40" y2="0" stroke-width="1.6" opacity="0.7"/></g>
<g>
<animateTransform attributeName="transform" type="translate" values="0 0;32 0;0 0" keyTimes="0;0.12;0.52" dur="2.8s" repeatCount="indefinite"/>
<polygon points="-58,0 -52,-4 -48,0 -52,4" fill="#bff8ff" filter="url(#blS)"/>
<circle cx="-53" cy="0" r="1.4" fill="#eafdff"/>
<rect x="-50" y="-1.6" width="78" height="3.2" rx="1.4" fill="url(#bladeC)" opacity="0.0"/>
<rect x="-50" y="-1.6" width="78" height="3.2" rx="1.4" fill="#cffaff"/>
<g stroke="#0a2230" stroke-width="2" opacity="0.8"><line x1="-30" y1="-2.4" x2="-30" y2="2.4"/><line x1="-10" y1="-2.4" x2="-10" y2="2.4"/><line x1="10" y1="-2.4" x2="10" y2="2.4"/></g>
<g fill="#7df9ff"><circle cx="-30" cy="0" r="0.9"/><circle cx="-10" cy="0" r="0.9"/><circle cx="10" cy="0" r="0.9"/></g>
<rect x="25" y="-2.6" width="6" height="5.2" rx="1" fill="#3fb8d8" stroke="#bff8ff" stroke-width="0.5"/>
<path d="M 31 0 Q 40 -5.5 50 -3 L 64 0 L 50 3 Q 40 5.5 31 0 Z" fill="url(#bladeC)" filter="url(#blS)"/>
<line x1="33" y1="0" x2="60" y2="0" stroke="#06101e" stroke-width="0.7" opacity="0.6"/>
<line x1="33" y1="-0.8" x2="55" y2="-0.4" stroke="#ffffff" stroke-width="0.6" opacity="0.9"/>
<polygon points="58,-1 64,0 58,1" fill="#ffffff" filter="url(#bl)"/>
<g fill="#7df9ff" opacity="0.85"><path d="M 6 -1.5 L -16 -12 Q -10 -2 -18 -3 L 6 1.5 Z"><animate attributeName="d" values="M 6 -1.5 L -16 -12 Q -10 -2 -18 -3 L 6 1.5 Z;M 6 -1.5 L -16 -8 Q -8 -1 -18 -1 L 6 1.5 Z;M 6 -1.5 L -16 -12 Q -10 -2 -18 -3 L 6 1.5 Z" dur="1.6s" repeatCount="indefinite"/></path></g>
</g>
<g transform="translate(64,0)">
<circle r="2" fill="none" stroke="#eafdff" stroke-width="2" opacity="0"><animate attributeName="r" values="2;6;26" keyTimes="0;0.12;0.34" dur="2.8s" repeatCount="indefinite"/><animate attributeName="opacity" values="0;0.95;0" keyTimes="0;0.12;0.34" dur="2.8s" repeatCount="indefinite"/></circle>
<circle r="1" fill="#ffffff" opacity="0"><animate attributeName="r" values="1;11;1" keyTimes="0;0.14;0.24" dur="2.8s" repeatCount="indefinite"/><animate attributeName="opacity" values="0;1;0" keyTimes="0.09;0.14;0.26" dur="2.8s" repeatCount="indefinite"/></circle>
<g fill="#bff8ff"><circle r="1.4" opacity="0"><animate attributeName="opacity" values="0;1;0" keyTimes="0.11;0.17;0.42" dur="2.8s" repeatCount="indefinite"/><animateTransform attributeName="transform" type="translate" values="0 0;18 -13" keyTimes="0.11;0.42" dur="2.8s" repeatCount="indefinite"/></circle><circle r="1.2" opacity="0"><animate attributeName="opacity" values="0;1;0" keyTimes="0.11;0.17;0.42" dur="2.8s" repeatCount="indefinite"/><animateTransform attributeName="transform" type="translate" values="0 0;20 7" keyTimes="0.11;0.42" dur="2.8s" repeatCount="indefinite"/></circle><circle r="1" opacity="0"><animate attributeName="opacity" values="0;1;0" keyTimes="0.11;0.17;0.42" dur="2.8s" repeatCount="indefinite"/><animateTransform attributeName="transform" type="translate" values="0 0;15 17" keyTimes="0.11;0.42" dur="2.8s" repeatCount="indefinite"/></circle></g>
</g>
</g>
<path d="M -62 -36 L 0 -72 L 62.4 -36 L 40 -20 Q 0 -44 -40 -20 Z" fill="url(#glass)"/>
</g>
<polygon points="0,-72 62.4,-36 62.4,36 0,72 -62.4,36 -62.4,-36" fill="none" stroke="url(#bzC)" stroke-width="2.2"/>
<polygon points="0,-63 54.6,-31.5 54.6,31.5 0,63 -54.6,31.5 -54.6,-31.5" fill="none" stroke="#7df9ff" stroke-width="0.5" opacity="0.35"/>
<g fill="#bff8ff"><circle cx="0" cy="-72" r="1.9"/><circle cx="62.4" cy="-36" r="1.9"/><circle cx="62.4" cy="36" r="1.9"/><circle cx="0" cy="72" r="1.9"/><circle cx="-62.4" cy="36" r="1.9"/><circle cx="-62.4" cy="-36" r="1.9"/></g>
</g>

<g transform="translate(496,196) scale(1.46)">
<circle r="100" fill="#6ee7b7" opacity="0.14" filter="url(#big)"><animate attributeName="opacity" values="0.16;0.06;0.16" dur="3.6s" repeatCount="indefinite"/></circle>
<use href="#rays" style="color:#6ee7b7" opacity="0.18"><animateTransform attributeName="transform" type="rotate" from="30" to="0" dur="11s" repeatCount="indefinite"/></use>
<g clip-path="url(#hx)"><use href="#guil" style="color:#6ee7b7" opacity="0.14"/></g>
<use href="#guil" style="color:#163a2e" opacity="0.5"/>
<circle r="106" fill="none" stroke="#6ee7b7" stroke-width="6" stroke-dasharray="3 5" opacity="0.5"><animateTransform attributeName="transform" type="rotate" from="360" to="0" dur="26s" repeatCount="indefinite"/></circle>
<circle r="103" fill="none" stroke="#aef5da" stroke-width="0.7" stroke-dasharray="1.3 3" opacity="0.6"/>
<circle r="98" fill="none" stroke="url(#bzH)" stroke-width="7.5"/>
<circle r="92" fill="none" stroke="#06160f" stroke-width="2.2"/>
<circle r="98" fill="none" stroke="#dffff4" stroke-width="7.5" stroke-linecap="round" stroke-dasharray="16 9999" opacity="0.8"><animate attributeName="stroke-dashoffset" values="0;-616" dur="5.5s" repeatCount="indefinite"/></circle>
<circle r="98" fill="none" stroke="#dffff4" stroke-width="7.5" stroke-linecap="round" stroke-dasharray="16 9999" opacity="0.55"><animate attributeName="stroke-dashoffset" values="-308;-924" dur="5.5s" repeatCount="indefinite"/></circle>
<g clip-path="url(#hx)">
<polygon points="0,-72 62.4,-36 62.4,36 0,72 -62.4,36 -62.4,-36" fill="#04140d"/>
<circle r="60" fill="url(#coreH)" opacity="0.16"><animate attributeName="opacity" values="0.2;0.05;0.2" dur="3.6s" repeatCount="indefinite"/></circle>
<g fill="none" stroke="#6ee7b7"><circle r="54" stroke-width="0" opacity="0"><animate attributeName="r" values="58;2" dur="2.4s" begin="0s" repeatCount="indefinite"/><animate attributeName="stroke-width" values="2.4;0.4" dur="2.4s" begin="0s" repeatCount="indefinite"/><animate attributeName="opacity" values="0;0.7;0" dur="2.4s" begin="0s" repeatCount="indefinite"/></circle><circle opacity="0"><animate attributeName="r" values="58;2" dur="2.4s" begin="0.8s" repeatCount="indefinite"/><animate attributeName="stroke-width" values="2.4;0.4" dur="2.4s" begin="0.8s" repeatCount="indefinite"/><animate attributeName="opacity" values="0;0.7;0" dur="2.4s" begin="0.8s" repeatCount="indefinite"/></circle><circle opacity="0"><animate attributeName="r" values="58;2" dur="2.4s" begin="1.6s" repeatCount="indefinite"/><animate attributeName="stroke-width" values="2.4;0.4" dur="2.4s" begin="1.6s" repeatCount="indefinite"/><animate attributeName="opacity" values="0;0.7;0" dur="2.4s" begin="1.6s" repeatCount="indefinite"/></circle></g>
<path d="M 0 -48 A 48 48 0 1 1 -33.9 -33.9" fill="none" stroke="#2a9f7e" stroke-width="3.5" opacity="0.85"/>
<path d="M 0 -48 A 48 48 0 1 1 -33.9 -33.9" fill="none" stroke="#6ee7b7" stroke-width="1.2" opacity="0.7" stroke-dasharray="2 8"><animate attributeName="stroke-dashoffset" from="0" to="60" dur="6s" repeatCount="indefinite"/></path>
<g fill="#aef5da"><circle cx="0" cy="-48" r="2.4"/><circle cx="-33.9" cy="-33.9" r="2.2"/></g>
<g><animateTransform attributeName="transform" type="rotate" from="0" to="-360" dur="14s" repeatCount="indefinite"/>
<g fill="#9ff0cd"><circle r="1.6" opacity="0"><animateTransform attributeName="transform" type="translate" values="58 0;0 0" dur="2.4s" begin="0s" repeatCount="indefinite"/><animate attributeName="opacity" values="0;0.9;0.9;0" keyTimes="0;0.15;0.7;1" dur="2.4s" begin="0s" repeatCount="indefinite"/></circle><circle r="1.4" opacity="0"><animateTransform attributeName="transform" type="translate" values="44.4 37.3;0 0" dur="2.4s" begin="0.27s" repeatCount="indefinite"/><animate attributeName="opacity" values="0;0.9;0.9;0" keyTimes="0;0.15;0.7;1" dur="2.4s" begin="0.27s" repeatCount="indefinite"/></circle><circle r="1.5" opacity="0"><animateTransform attributeName="transform" type="translate" values="10.1 57.1;0 0" dur="2.4s" begin="0.54s" repeatCount="indefinite"/><animate attributeName="opacity" values="0;0.9;0.9;0" keyTimes="0;0.15;0.7;1" dur="2.4s" begin="0.54s" repeatCount="indefinite"/></circle><circle r="1.3" opacity="0"><animateTransform attributeName="transform" type="translate" values="-29 50.2;0 0" dur="2.4s" begin="0.81s" repeatCount="indefinite"/><animate attributeName="opacity" values="0;0.9;0.9;0" keyTimes="0;0.15;0.7;1" dur="2.4s" begin="0.81s" repeatCount="indefinite"/></circle><circle r="1.6" opacity="0"><animateTransform attributeName="transform" type="translate" values="-54.5 19.8;0 0" dur="2.4s" begin="1.08s" repeatCount="indefinite"/><animate attributeName="opacity" values="0;0.9;0.9;0" keyTimes="0;0.15;0.7;1" dur="2.4s" begin="1.08s" repeatCount="indefinite"/></circle><circle r="1.4" opacity="0"><animateTransform attributeName="transform" type="translate" values="-54.5 -19.8;0 0" dur="2.4s" begin="1.35s" repeatCount="indefinite"/><animate attributeName="opacity" values="0;0.9;0.9;0" keyTimes="0;0.15;0.7;1" dur="2.4s" begin="1.35s" repeatCount="indefinite"/></circle><circle r="1.5" opacity="0"><animateTransform attributeName="transform" type="translate" values="-29 -50.2;0 0" dur="2.4s" begin="1.62s" repeatCount="indefinite"/><animate attributeName="opacity" values="0;0.9;0.9;0" keyTimes="0;0.15;0.7;1" dur="2.4s" begin="1.62s" repeatCount="indefinite"/></circle><circle r="1.3" opacity="0"><animateTransform attributeName="transform" type="translate" values="10.1 -57.1;0 0" dur="2.4s" begin="1.89s" repeatCount="indefinite"/><animate attributeName="opacity" values="0;0.9;0.9;0" keyTimes="0;0.15;0.7;1" dur="2.4s" begin="1.89s" repeatCount="indefinite"/></circle><circle r="1.5" opacity="0"><animateTransform attributeName="transform" type="translate" values="44.4 -37.3;0 0" dur="2.4s" begin="2.16s" repeatCount="indefinite"/><animate attributeName="opacity" values="0;0.9;0.9;0" keyTimes="0;0.15;0.7;1" dur="2.4s" begin="2.16s" repeatCount="indefinite"/></circle></g>
</g>
<circle r="16" fill="#020e09"/>
<circle r="16" fill="none" stroke="#2a9f7e" stroke-width="1"><animate attributeName="r" values="14;18;14" dur="3.6s" repeatCount="indefinite"/></circle>
<circle r="11" fill="#04140d"/>
<circle r="3" fill="#6ee7b7" opacity="0.8"><animate attributeName="opacity" values="0.3;0.9;0.3" dur="2s" repeatCount="indefinite"/><animate attributeName="r" values="2;4;2" dur="2s" repeatCount="indefinite"/></circle>
<g stroke="#aef5da" stroke-width="1.1" fill="none" opacity="0"><animate attributeName="opacity" values="0;0;0.85;0.85;0" keyTimes="0;0.42;0.47;0.55;0.62" dur="5s" repeatCount="indefinite"/><circle cx="0" cy="-3" r="4"/><line x1="0" y1="1" x2="0" y2="10"/><line x1="0" y1="6" x2="4" y2="6"/><line x1="0" y1="10" x2="3" y2="10"/></g>
<path d="M -62 -36 L 0 -72 L 62.4 -36 L 40 -20 Q 0 -44 -40 -20 Z" fill="url(#glass)"/>
</g>
<polygon points="0,-72 62.4,-36 62.4,36 0,72 -62.4,36 -62.4,-36" fill="none" stroke="url(#bzH)" stroke-width="2.8"/>
<polygon points="0,-63 54.6,-31.5 54.6,31.5 0,63 -54.6,31.5 -54.6,-31.5" fill="none" stroke="#6ee7b7" stroke-width="0.6" opacity="0.45"/>
<use href="#r12" style="color:#aef5da"/>
</g>

<g font-family="ui-monospace, monospace" text-anchor="middle">
<text x="186" y="392" fill="#bff8ff" font-size="14" letter-spacing="2.5">THE LANCE</text>
<text x="186" y="409" fill="#46707f" font-size="9.5" letter-spacing="3">FREE · TIER I</text>
<text x="496" y="392" fill="#9ff0cd" font-size="14" letter-spacing="2.5">THE HOLLOW</text>
<text x="496" y="409" fill="#3f7d68" font-size="9.5" letter-spacing="3">BOSS · TIER II</text>
</g>
</svg>
