<svg width="100%" viewBox="0 0 680 400" role="img" xmlns="http://www.w3.org/2000/svg">
<title>LANCEFALL avatar tier ladder with differentiated frames and rich animation</title>
<desc>COHERENCE (clean tier I), THE WARDEN'S SEAL (ornate tier II with gear ring) and THE FALLEN CROWN (regal tier III) with animated glints, embers, shards and twinkles.</desc>
<defs>
<radialGradient id="vg" cx="50%" cy="38%" r="72%"><stop offset="0%" stop-color="#0e1730"/><stop offset="100%" stop-color="#03050c"/></radialGradient>
<radialGradient id="coreC" cx="50%" cy="45%" r="55%"><stop offset="0%" stop-color="#ffffff"/><stop offset="35%" stop-color="#9bffff"/><stop offset="70%" stop-color="#22a6c4"/><stop offset="100%" stop-color="#0a3a4a" stop-opacity="0"/></radialGradient>
<radialGradient id="coreR" cx="50%" cy="45%" r="55%"><stop offset="0%" stop-color="#fff0f3"/><stop offset="35%" stop-color="#ff6f8c"/><stop offset="70%" stop-color="#c41d42"/><stop offset="100%" stop-color="#4a0815" stop-opacity="0"/></radialGradient>
<radialGradient id="coreG" cx="50%" cy="45%" r="55%"><stop offset="0%" stop-color="#fffdf0"/><stop offset="35%" stop-color="#ffe46b"/><stop offset="70%" stop-color="#caa12a"/><stop offset="100%" stop-color="#5a4408" stop-opacity="0"/></radialGradient>
<linearGradient id="bzC" x1="0" y1="0" x2="1" y2="1"><stop offset="0%" stop-color="#16202f"/><stop offset="35%" stop-color="#4fd6ee"/><stop offset="50%" stop-color="#e9feff"/><stop offset="66%" stop-color="#3fb8d8"/><stop offset="100%" stop-color="#101826"/></linearGradient>
<linearGradient id="bzR" x1="0" y1="0" x2="1" y2="1"><stop offset="0%" stop-color="#2a0e14"/><stop offset="35%" stop-color="#ff3b6b"/><stop offset="50%" stop-color="#ffd9e1"/><stop offset="66%" stop-color="#d12450"/><stop offset="100%" stop-color="#200810"/></linearGradient>
<linearGradient id="bzG" x1="0" y1="0" x2="1" y2="1"><stop offset="0%" stop-color="#221a08"/><stop offset="30%" stop-color="#e6bf3e"/><stop offset="50%" stop-color="#fff6cf"/><stop offset="70%" stop-color="#c79a26"/><stop offset="100%" stop-color="#1c1404"/></linearGradient>
<linearGradient id="redSh" x1="0" y1="0" x2="0.4" y2="1"><stop offset="0%" stop-color="#7a0f24"/><stop offset="45%" stop-color="#ff5a7d"/><stop offset="100%" stop-color="#ffd0da"/></linearGradient>
<linearGradient id="goldSh" x1="0" y1="0" x2="0.4" y2="1"><stop offset="0%" stop-color="#a87b16"/><stop offset="45%" stop-color="#ffe46b"/><stop offset="100%" stop-color="#fff8d6"/></linearGradient>
<linearGradient id="glass" x1="0" y1="0" x2="0" y2="1"><stop offset="0%" stop-color="#ffffff" stop-opacity="0.5"/><stop offset="40%" stop-color="#ffffff" stop-opacity="0.06"/><stop offset="100%" stop-color="#ffffff" stop-opacity="0"/></linearGradient>
<filter id="bl" x="-60%" y="-60%" width="220%" height="220%"><feGaussianBlur stdDeviation="2.2"/><feMerge><feMergeNode/><feMergeNode in="SourceGraphic"/></feMerge></filter>
<filter id="blS" x="-80%" y="-80%" width="260%" height="260%"><feGaussianBlur stdDeviation="1.1"/><feMerge><feMergeNode/><feMergeNode in="SourceGraphic"/></feMerge></filter>
<filter id="big" x="-130%" y="-130%" width="360%" height="360%"><feGaussianBlur stdDeviation="10"/></filter>
<g id="rays" stroke="currentColor" stroke-width="1.2" stroke-linecap="round"><line x1="42" y1="0" x2="92" y2="0"/><line x1="36.4" y1="21" x2="79.7" y2="46"/><line x1="21" y1="36.4" x2="46" y2="79.7"/><line x1="0" y1="42" x2="0" y2="92"/><line x1="-21" y1="36.4" x2="-46" y2="79.7"/><line x1="-36.4" y1="21" x2="-79.7" y2="46"/><line x1="-42" y1="0" x2="-92" y2="0"/><line x1="-36.4" y1="-21" x2="-79.7" y2="-46"/><line x1="-21" y1="-36.4" x2="-46" y2="-79.7"/><line x1="0" y1="-42" x2="0" y2="-92"/><line x1="21" y1="-36.4" x2="46" y2="-79.7"/><line x1="36.4" y1="-21" x2="79.7" y2="-46"/></g>
<g id="r6" fill="currentColor"><circle cx="0" cy="-72" r="1.9"/><circle cx="62.4" cy="-36" r="1.9"/><circle cx="62.4" cy="36" r="1.9"/><circle cx="0" cy="72" r="1.9"/><circle cx="-62.4" cy="36" r="1.9"/><circle cx="-62.4" cy="-36" r="1.9"/></g>
<g id="r12" fill="currentColor"><circle cx="0" cy="-72" r="2.6"/><circle cx="62.4" cy="-36" r="2.6"/><circle cx="62.4" cy="36" r="2.6"/><circle cx="0" cy="72" r="2.6"/><circle cx="-62.4" cy="36" r="2.6"/><circle cx="-62.4" cy="-36" r="2.6"/><circle cx="31.2" cy="-54" r="1.7"/><circle cx="62.4" cy="0" r="1.7"/><circle cx="31.2" cy="54" r="1.7"/><circle cx="-31.2" cy="54" r="1.7"/><circle cx="-62.4" cy="0" r="1.7"/><circle cx="-31.2" cy="-54" r="1.7"/></g>
<g id="guil" fill="none" stroke="currentColor" stroke-width="0.5"><ellipse rx="96" ry="80"/><ellipse rx="96" ry="80" transform="rotate(20)"/><ellipse rx="96" ry="80" transform="rotate(40)"/><ellipse rx="96" ry="80" transform="rotate(60)"/><ellipse rx="96" ry="80" transform="rotate(80)"/><ellipse rx="96" ry="80" transform="rotate(100)"/><ellipse rx="96" ry="80" transform="rotate(120)"/><ellipse rx="96" ry="80" transform="rotate(140)"/><ellipse rx="96" ry="80" transform="rotate(160)"/></g>
<clipPath id="hx"><polygon points="0,-72 62.4,-36 62.4,36 0,72 -62.4,36 -62.4,-36"/></clipPath>
</defs>

<rect x="0" y="0" width="680" height="400" rx="16" fill="url(#vg)"/>

<g transform="translate(120,175)">
<circle r="84" fill="#7df9ff" opacity="0.10" filter="url(#big)"><animate attributeName="opacity" values="0.06;0.15;0.06" dur="5s" repeatCount="indefinite"/></circle>
<circle r="90" fill="none" stroke="url(#bzC)" stroke-width="5"/>
<circle r="86" fill="none" stroke="#06121c" stroke-width="1.6"/>
<circle r="82" fill="none" stroke="#7df9ff" stroke-width="0.6" stroke-dasharray="6 6" opacity="0.4"><animateTransform attributeName="transform" type="rotate" from="0" to="360" dur="50s" repeatCount="indefinite"/></circle>
<circle r="90" fill="none" stroke="#eafdff" stroke-width="5" stroke-linecap="round" stroke-dasharray="14 9999" opacity="0.8"><animate attributeName="stroke-dashoffset" values="0;-565" dur="6s" repeatCount="indefinite"/></circle>
<g clip-path="url(#hx)">
<polygon points="0,-72 62.4,-36 62.4,36 0,72 -62.4,36 -62.4,-36" fill="#06101e"/>
<circle r="62" fill="url(#coreC)" opacity="0.20"><animate attributeName="opacity" values="0.12;0.26;0.12" dur="4s" repeatCount="indefinite"/></circle>
<g fill="#cffaff"><circle cx="-40" cy="-30" r="1"><animate attributeName="opacity" values="0.2;1;0.2" dur="2.6s" repeatCount="indefinite"/></circle><circle cx="38" cy="-40" r="0.8"><animate attributeName="opacity" values="1;0.2;1" dur="3.1s" repeatCount="indefinite"/></circle><circle cx="44" cy="22" r="1"><animate attributeName="opacity" values="0.3;1;0.3" dur="2.2s" repeatCount="indefinite"/></circle><circle cx="-30" cy="40" r="0.8"><animate attributeName="opacity" values="1;0.3;1" dur="3.6s" repeatCount="indefinite"/></circle></g>
<g fill="none"><circle r="54" stroke="#2f6f88" stroke-width="0.7" stroke-dasharray="3 6" opacity="0.5"/><circle r="42" stroke="#4fd6ee" stroke-width="1" opacity="0.55"/><circle r="30" stroke="#9bffff" stroke-width="1.2" opacity="0.7"/></g>
<circle r="48" fill="none" stroke="#7df9ff" stroke-width="1.4" stroke-dasharray="5 11" opacity="0.8"><animate attributeName="stroke-dashoffset" from="0" to="-160" dur="7s" repeatCount="indefinite"/></circle>
<circle r="36" fill="none" stroke="#9bffff" stroke-width="1" stroke-dasharray="3 9" opacity="0.7"><animate attributeName="stroke-dashoffset" from="0" to="120" dur="5s" repeatCount="indefinite"/></circle>
<g><animateTransform attributeName="transform" type="scale" values="0.92;1.07;0.92" dur="3.4s" repeatCount="indefinite"/><polygon points="0,-19 16,0 0,19 -16,0" fill="url(#coreC)"/><polygon points="0,-12 11,0 0,12 -11,0" fill="#eafdff"/><g stroke="#3fb8d8" stroke-width="0.5" opacity="0.85"><line x1="0" y1="-19" x2="0" y2="19"/><line x1="-16" y1="0" x2="16" y2="0"/><line x1="0" y1="-12" x2="11" y2="0"/><line x1="0" y1="12" x2="-11" y2="0"/></g></g>
<circle r="3.4" fill="#ffffff"/>
<g filter="url(#bl)"><circle cx="38" cy="0" r="3" fill="#9bffff"><animateTransform attributeName="transform" type="rotate" from="0" to="360" dur="9s" repeatCount="indefinite"/></circle><circle cx="-48" cy="0" r="2.4" fill="#bdf6ff"><animateTransform attributeName="transform" type="rotate" from="180" to="540" dur="14s" repeatCount="indefinite"/></circle></g>
<path d="M -62 -36 L 0 -72 L 62.4 -36 L 40 -20 Q 0 -44 -40 -20 Z" fill="url(#glass)"/>
</g>
<polygon points="0,-72 62.4,-36 62.4,36 0,72 -62.4,36 -62.4,-36" fill="none" stroke="url(#bzC)" stroke-width="2.2"/>
<polygon points="0,-63 54.6,-31.5 54.6,31.5 0,63 -54.6,31.5 -54.6,-31.5" fill="none" stroke="#7df9ff" stroke-width="0.5" opacity="0.35"/>
<use href="#r6" style="color:#bff8ff"/>
</g>

<g transform="translate(340,175)">
<circle r="100" fill="#ff3b6b" opacity="0.15" filter="url(#big)"><animate attributeName="opacity" values="0.1;0.22;0.1" dur="3.4s" repeatCount="indefinite"/></circle>
<use href="#rays" style="color:#ff3b6b" opacity="0.22"><animateTransform attributeName="transform" type="rotate" from="0" to="30" dur="9s" repeatCount="indefinite"/></use>
<g clip-path="url(#hx)"><use href="#guil" style="color:#ff3b6b" opacity="0.16"/></g>
<use href="#guil" style="color:#5a1622" opacity="0.5"/>
<circle r="106" fill="none" stroke="#ff3b6b" stroke-width="6" stroke-dasharray="3 5" opacity="0.55"><animateTransform attributeName="transform" type="rotate" from="0" to="360" dur="22s" repeatCount="indefinite"/></circle>
<circle r="103" fill="none" stroke="#ff7a97" stroke-width="0.7" stroke-dasharray="1.3 3" opacity="0.6"/>
<circle r="98" fill="none" stroke="url(#bzR)" stroke-width="7.5"/>
<circle r="92" fill="none" stroke="#180408" stroke-width="2.2"/>
<circle r="98" fill="none" stroke="#ffe2e9" stroke-width="7.5" stroke-linecap="round" stroke-dasharray="16 9999" opacity="0.85"><animate attributeName="stroke-dashoffset" values="0;-616" dur="5s" repeatCount="indefinite"/></circle>
<circle r="98" fill="none" stroke="#ffe2e9" stroke-width="7.5" stroke-linecap="round" stroke-dasharray="16 9999" opacity="0.6"><animate attributeName="stroke-dashoffset" values="-308;-924" dur="5s" repeatCount="indefinite"/></circle>
<g clip-path="url(#hx)">
<polygon points="0,-72 62.4,-36 62.4,36 0,72 -62.4,36 -62.4,-36" fill="#0c0408"/>
<circle r="20" fill="none" stroke="#ff3b6b" stroke-width="2" opacity="0"><animate attributeName="r" values="14;58" dur="3s" repeatCount="indefinite"/><animate attributeName="opacity" values="0.5;0" dur="3s" repeatCount="indefinite"/></circle>
<circle r="64" fill="url(#coreR)" opacity="0.28"/>
<path d="M -44 56 L -44 -18 Q -44 -54 0 -58 Q 44 -54 44 -18 L 44 56 Z" fill="#1c0a10" stroke="url(#redSh)" stroke-width="2.2"/>
<g stroke="url(#redSh)" stroke-width="3.4" stroke-linecap="round"><line x1="-30" y1="-44" x2="-30" y2="56"/><line x1="-15" y1="-52" x2="-15" y2="56"/><line x1="0" y1="-56" x2="0" y2="56"/><line x1="15" y1="-52" x2="15" y2="56"/><line x1="30" y1="-44" x2="30" y2="56"/></g>
<g stroke="#7a0f24" stroke-width="0.8" opacity="0.7"><line x1="-30" y1="-44" x2="-30" y2="56"/><line x1="0" y1="-56" x2="0" y2="56"/><line x1="30" y1="-44" x2="30" y2="56"/></g>
<g stroke="url(#redSh)" stroke-width="2.4" opacity="0.85"><line x1="-42" y1="-22" x2="42" y2="-22"/><line x1="-44" y1="6" x2="44" y2="6"/></g>
<rect x="-46" y="-8" width="92" height="9" rx="2" fill="url(#redSh)" filter="url(#blS)" transform="rotate(-9)"/>
<g fill="#ffd0da" filter="url(#bl)"><circle cx="-44" cy="-1" r="3.6"/><circle cx="44" cy="-15" r="3.6"/></g>
<path d="M -22 30 L 22 30 L 16 8 Q 0 -2 -16 8 Z" fill="#240810" stroke="url(#redSh)" stroke-width="1.6"/>
<circle cx="0" cy="16" r="8" fill="#ff3b6b" opacity="0.35" filter="url(#bl)"><animate attributeName="opacity" values="0.15;0.55;0.15" dur="2s" repeatCount="indefinite"/></circle>
<circle cx="0" cy="16" r="6" fill="#3a0c18" stroke="#ff5a7d" stroke-width="1.4"/>
<circle cx="0" cy="14" r="2.2" fill="#ff8aa3"/><polygon points="-1.6,15 1.6,15 3,26 -3,26" fill="#ff8aa3"/>
<g stroke="#ff5a7d" stroke-width="0.9" opacity="0.8"><path d="M -38 -30 L -22 -12 L -34 2"><animate attributeName="opacity" values="0.4;1;0.4" dur="2.4s" repeatCount="indefinite"/></path></g>
<g fill="#ffb3c2" filter="url(#bl)"><circle cx="-26" cy="40" r="1.4"><animate attributeName="cy" values="44;-10" dur="3.6s" repeatCount="indefinite"/><animate attributeName="opacity" values="1;0" dur="3.6s" repeatCount="indefinite"/></circle><circle cx="6" cy="48" r="1.1"><animate attributeName="cy" values="50;0" dur="4.4s" repeatCount="indefinite"/><animate attributeName="opacity" values="1;0" dur="4.4s" repeatCount="indefinite"/></circle><circle cx="28" cy="44" r="1.2"><animate attributeName="cy" values="46;-6" dur="3.1s" repeatCount="indefinite"/><animate attributeName="opacity" values="1;0" dur="3.1s" repeatCount="indefinite"/></circle></g>
<path d="M -62 -36 L 0 -72 L 62.4 -36 L 40 -20 Q 0 -44 -40 -20 Z" fill="url(#glass)"/>
</g>
<polygon points="0,-72 62.4,-36 62.4,36 0,72 -62.4,36 -62.4,-36" fill="none" stroke="url(#bzR)" stroke-width="2.8"/>
<polygon points="0,-63 54.6,-31.5 54.6,31.5 0,63 -54.6,31.5 -54.6,-31.5" fill="none" stroke="#ff3b6b" stroke-width="0.6" opacity="0.45"/>
<use href="#r12" style="color:#ffd0da"/>
</g>

<g transform="translate(560,175)">
<circle r="106" fill="#fde047" opacity="0.16" filter="url(#big)"><animate attributeName="opacity" values="0.1;0.24;0.1" dur="4.4s" repeatCount="indefinite"/></circle>
<use href="#rays" style="color:#fde047" opacity="0.22"/>
<use href="#rays" style="color:#fff3c0" opacity="0.14" transform="rotate(15)"/>
<g clip-path="url(#hx)"><use href="#guil" style="color:#fde047" opacity="0.16"/></g>
<use href="#guil" style="color:#5a4408" opacity="0.55"/>
<circle r="111" fill="none" stroke="#fde047" stroke-width="0.6" stroke-dasharray="1 6" opacity="0.5"/>
<circle r="107" fill="none" stroke="#caa12a" stroke-width="4" stroke-dasharray="3 4" opacity="0.6"><animateTransform attributeName="transform" type="rotate" from="0" to="360" dur="80s" repeatCount="indefinite"/></circle>
<circle r="103" fill="none" stroke="#fde047" stroke-width="3" stroke-dasharray="1.2 2.6" opacity="0.6"/>
<circle r="98" fill="none" stroke="url(#bzG)" stroke-width="8"/>
<circle r="92" fill="none" stroke="#140e02" stroke-width="2.4"/>
<circle r="86" fill="none" stroke="#ffe46b" stroke-width="0.8" stroke-dasharray="11 6" opacity="0.5"><animateTransform attributeName="transform" type="rotate" from="360" to="0" dur="50s" repeatCount="indefinite"/></circle>
<circle r="98" fill="none" stroke="#fffbe6" stroke-width="8" stroke-linecap="round" stroke-dasharray="18 9999" opacity="0.9"><animate attributeName="stroke-dashoffset" values="0;-616" dur="4.5s" repeatCount="indefinite"/></circle>
<circle r="98" fill="none" stroke="#fffbe6" stroke-width="8" stroke-linecap="round" stroke-dasharray="18 9999" opacity="0.7"><animate attributeName="stroke-dashoffset" values="-205;-821" dur="4.5s" repeatCount="indefinite"/></circle>
<circle r="98" fill="none" stroke="#fffbe6" stroke-width="8" stroke-linecap="round" stroke-dasharray="18 9999" opacity="0.5"><animate attributeName="stroke-dashoffset" values="-410;-1026" dur="4.5s" repeatCount="indefinite"/></circle>
<g stroke="#ffe46b" stroke-width="1.6" stroke-linecap="round" opacity="0.85"><line x1="0" y1="-99" x2="0" y2="-110"/><line x1="70" y1="-70" x2="77.8" y2="-77.8"/><line x1="99" y1="0" x2="110" y2="0"/><line x1="-70" y1="-70" x2="-77.8" y2="-77.8"/><line x1="-99" y1="0" x2="-110" y2="0"/></g>
<g clip-path="url(#hx)">
<polygon points="0,-72 62.4,-36 62.4,36 0,72 -62.4,36 -62.4,-36" fill="#0d0a02"/>
<circle r="64" fill="url(#coreG)" opacity="0.26"><animate attributeName="opacity" values="0.16;0.32;0.16" dur="4.6s" repeatCount="indefinite"/></circle>
<g fill="none" stroke="#fde047" opacity="0.32" stroke-width="0.9"><animateTransform attributeName="transform" type="rotate" from="0" to="360" dur="36s" repeatCount="indefinite"/><path d="M -58 -10 A 58 58 0 0 1 -10 -58"/><path d="M 58 14 A 58 58 0 0 1 14 58"/><path d="M -52 30 A 56 56 0 0 0 30 52" stroke-dasharray="3 5"/><path d="M 20 -50 A 56 56 0 0 1 50 -20" stroke-dasharray="2 6"/></g>
<circle r="50" fill="none" stroke="#ffe46b" stroke-width="1" stroke-dasharray="2 10" opacity="0.6"><animate attributeName="stroke-dashoffset" from="0" to="-120" dur="9s" repeatCount="indefinite"/></circle>
<g transform="translate(0,12)">
<path d="M -42 16 L -42 0 L -21 -26 L -21 4 L 0 -36 L 0 2 L 21 -26 L 21 16 Z" fill="url(#goldSh)" filter="url(#blS)"/>
<path d="M -42 16 L 21 16 L 21 30 L -42 30 Z" fill="url(#goldSh)" filter="url(#blS)"/>
<g stroke="#7a5a10" stroke-width="0.6" opacity="0.6"><path d="M -34 30 L -34 16"/><path d="M -10 30 L -10 18"/><path d="M 12 30 L 12 16"/><path d="M -30 0 L -21 -22"/><path d="M -10 2 L 0 -30"/></g>
<line x1="-42" y1="22" x2="21" y2="22" stroke="#fff8d6" stroke-width="0.8" opacity="0.7"/>
<g filter="url(#bl)"><polygon points="-21,-30 -17,-26 -21,-22 -25,-26" fill="#fffdf0"><animate attributeName="opacity" values="0.4;1;0.4" dur="2.3s" repeatCount="indefinite"/></polygon><polygon points="0,-41 5,-36 0,-31 -5,-36" fill="#fffdf0"><animate attributeName="opacity" values="1;0.4;1" dur="2.8s" repeatCount="indefinite"/></polygon><polygon points="21,-30 25,-26 21,-22 17,-26" fill="#fffdf0"><animate attributeName="opacity" values="0.5;1;0.5" dur="2.1s" repeatCount="indefinite"/></polygon></g>
<path d="M -9 -2 L -3 16 L -15 30 L -5 30 L 3 12 L 0 0 Z" fill="#0d0a02" opacity="0.92"/>
<path d="M -9 -2 L 0 0 L 3 12" fill="none" stroke="#fff8d6" stroke-width="0.7" opacity="0.6"/>
</g>
<g transform="translate(42,-32) rotate(46)"><path d="M -9 12 L -9 0 L 0 -16 L 9 0 L 9 12 Z" fill="url(#goldSh)" filter="url(#bl)"/><polygon points="0,-12 4,-8 0,-4 -4,-8" fill="#fffdf0"/><g stroke="#fde047" stroke-width="2" stroke-linecap="round" opacity="0.4"><line x1="-2" y1="16" x2="-9" y2="32"/><line x1="3" y1="16" x2="8" y2="30"/></g></g>
<g fill="#ffe46b" filter="url(#bl)"><circle cx="26" cy="6" r="1.6"><animate attributeName="cy" values="6;22;6" dur="3.6s" repeatCount="indefinite"/></circle><circle cx="34" cy="20" r="1.1"/><circle cx="20" cy="30" r="0.9"/><circle cx="40" cy="-2" r="1.2"/></g>
<path d="M -62 -36 L 0 -72 L 62.4 -36 L 40 -20 Q 0 -44 -40 -20 Z" fill="url(#glass)"/>
</g>
<polygon points="0,-72 62.4,-36 62.4,36 0,72 -62.4,36 -62.4,-36" fill="none" stroke="url(#bzG)" stroke-width="3"/>
<polygon points="0,-63 54.6,-31.5 54.6,31.5 0,63 -54.6,31.5 -54.6,-31.5" fill="none" stroke="#fde047" stroke-width="0.7" opacity="0.45"/>
<use href="#r12" style="color:#fff3c0"/>
<g fill="#fde047" filter="url(#bl)"><circle cx="0" cy="-72" r="3.4"/><circle cx="62.4" cy="-36" r="3"/><circle cx="-62.4" cy="-36" r="3"/></g>
</g>

<g font-family="ui-monospace, monospace" text-anchor="middle">
<text x="120" y="344" fill="#bff8ff" font-size="13" letter-spacing="2.5">COHERENCE</text>
<text x="120" y="360" fill="#46707f" font-size="9" letter-spacing="3">FREE · TIER I</text>
<text x="340" y="344" fill="#ff9bb1" font-size="13" letter-spacing="2.5">THE WARDEN'S SEAL</text>
<text x="340" y="360" fill="#9a4257" font-size="9" letter-spacing="3">BOSS · TIER II</text>
<text x="560" y="344" fill="#ffe46b" font-size="13" letter-spacing="2.5">THE FALLEN CROWN</text>
<text x="560" y="360" fill="#8a7530" font-size="9" letter-spacing="3">PRESTIGE · TIER III</text>
</g>
</svg>
